ply
format ascii 1.0
comment Created in Blender version 4.3.2
comment TextureFile cube_texture.png
element vertex 14
property float x
property float y
property float z
property float s
property float t
element face 6
property list uchar uint vertex_indices
end_header
1 1 1 0.5 0.25073045
-1 1 1 0.49999997 0.0007304549
-1 -1 1 0.75 0.0007304549
1 -1 1 0.75 0.25073045
1 -1 -1 0.75 0.50073045
-1 -1 1 1 0.25073045
-1 -1 -1 1 0.50073045
-1 -1 -1 0 0.50073045
-1 -1 1 0 0.25073048
-1 1 1 0.25 0.25073045
-1 1 -1 0.25 0.50073045
-1 1 -1 0.5 0.75073045
1 1 -1 0.5 0.50073045
-1 -1 -1 0.75 0.75073045
4 0 1 2 3
4 4 3 5 6
4 7 8 9 10
4 11 12 4 13
4 12 0 3 4
4 10 9 0 12
